<?xml version="1.0" standalone="no"?>
<!DOCTYPE svg PUBLIC "-//W3C//DTD SVG 20010904//EN"
 "http://www.w3.org/TR/2001/REC-SVG-20010904/DTD/svg10.dtd">
<svg version="1.0" xmlns="http://www.w3.org/2000/svg"
 width="664.000000pt" height="664.000000pt" viewBox="0 0 664.000000 664.000000"
 preserveAspectRatio="xMidYMid meet">

<g transform="translate(0.000000,664.000000) scale(0.100000,-0.100000)"
fill="#842c4b" stroke="none">
<path d="M3145 6634 c-257 -19 -436 -47 -645 -100 -1169 -293 -2101 -1225
-2394 -2394 -73 -289 -100 -511 -100 -820 0 -309 27 -531 100 -820 293 -1169
1225 -2101 2394 -2394 289 -73 511 -100 820 -100 309 0 531 27 820 100 1169
293 2101 1225 2394 2394 73 289 100 511 100 820 0 309 -27 531 -100 820 -293
1169 -1225 2101 -2394 2394 -154 39 -321 69 -475 86 -106 11 -437 20 -520 14z
m591 -1884 c428 -25 681 -79 915 -195 121 -59 164 -91 253 -185 99 -106 191
-247 287 -440 128 -256 123 -234 127 -593 2 -228 0 -312 -9 -323 -7 -9 -30
-14 -60 -14 -45 0 -53 4 -92 44 -109 114 -261 203 -422 248 l-80 23 -1614 3
c-1179 2 -1618 6 -1628 14 -11 9 -13 103 -11 532 l3 521 27 56 c34 69 106 142
173 174 92 45 647 108 1225 138 149 8 749 6 906 -3z m932 -1606 c44 -9 118
-35 172 -61 81 -39 109 -59 185 -135 49 -49 97 -94 106 -99 10 -5 63 -9 119
-9 94 0 103 -2 125 -25 24 -23 25 -28 25 -175 0 -147 -1 -152 -25 -175 -24
-25 -27 -25 -188 -25 -122 0 -167 3 -175 13 -6 7 -18 45 -26 85 -20 95 -57
163 -131 238 -187 188 -483 188 -670 0 -74 -75 -111 -143 -131 -238 -8 -40
-20 -78 -26 -85 -15 -19 -1481 -19 -1496 0 -6 7 -18 45 -26 85 -20 95 -57 163
-131 238 -187 188 -483 188 -670 0 -74 -75 -111 -143 -131 -238 -8 -40 -20
-78 -26 -85 -14 -17 -159 -18 -176 -1 -7 7 -12 38 -12 70 0 47 4 60 20 70 19
12 20 24 20 278 0 194 3 269 12 278 9 9 377 12 1595 12 1395 0 1593 -2 1661
-16z m-2496 -412 c60 -26 133 -99 161 -160 17 -36 22 -66 22 -132 0 -103 -21
-157 -90 -225 -68 -69 -122 -90 -225 -90 -103 0 -157 21 -225 90 -168 168 -99
457 127 531 59 19 171 13 230 -14z m2480 0 c60 -26 133 -99 161 -160 17 -36
22 -66 22 -132 0 -103 -21 -157 -90 -225 -68 -69 -122 -90 -225 -90 -103 0
-157 21 -225 90 -168 168 -99 457 127 531 59 19 171 13 230 -14z"/>
<path d="M1616 4304 c-14 -13 -16 -57 -16 -324 0 -267 2 -311 16 -324 13 -14
57 -16 324 -16 267 0 311 2 324 16 14 13 16 57 16 324 0 267 -2 311 -16 324
-13 14 -57 16 -324 16 -267 0 -311 -2 -324 -16z"/>
<path d="M2456 4304 c-14 -13 -16 -57 -16 -324 0 -267 2 -311 16 -324 13 -14
57 -16 324 -16 267 0 311 2 324 16 14 13 16 57 16 324 0 267 -2 311 -16 324
-13 14 -57 16 -324 16 -267 0 -311 -2 -324 -16z"/>
<path d="M3296 4304 c-14 -13 -16 -57 -16 -324 0 -267 2 -311 16 -324 13 -14
57 -16 324 -16 267 0 311 2 324 16 14 13 16 57 16 324 0 267 -2 311 -16 324
-13 14 -57 16 -324 16 -267 0 -311 -2 -324 -16z"/>
<path d="M4136 4304 c-14 -13 -16 -57 -16 -324 0 -267 2 -311 16 -324 14 -14
72 -16 488 -16 531 0 509 -3 488 68 -7 21 -35 85 -63 142 -150 308 -239 403
-424 450 -105 27 -464 30 -489 4z"/>
<path d="M1970 2578 c-48 -25 -90 -89 -90 -138 0 -49 42 -113 90 -137 24 -13
56 -23 70 -23 49 0 113 42 138 90 12 24 22 56 22 70 0 49 -42 113 -90 138 -24
12 -56 22 -70 22 -14 0 -46 -10 -70 -22z"/>
<path d="M4450 2578 c-48 -25 -90 -89 -90 -138 0 -14 10 -46 23 -70 24 -48 88
-90 137 -90 14 0 46 10 70 23 48 24 90 88 90 137 0 14 -10 46 -22 70 -25 48
-89 90 -138 90 -14 0 -46 -10 -70 -22z"/>
</g>
</svg>
